<svg width="26" height="14" viewBox="0 0 26 14" fill="none" xmlns="http://www.w3.org/2000/svg">
<path fill-rule="evenodd" clip-rule="evenodd" d="M3 0C1.34315 0 0 1.34315 0 3V11C0 12.6569 1.34315 14 3 14H23C24.6569 14 26 12.6569 26 11V3C26 1.34315 24.6569 0 23 0H3ZM4.08 1.07692C2.97543 1.07692 2.08 1.97235 2.08 3.07692V10.9231C2.08 12.0276 2.97543 12.9231 4.08 12.9231H22.96C24.0646 12.9231 24.96 12.0276 24.96 10.9231V3.07692C24.96 1.97235 24.0646 1.07692 22.96 1.07692H4.08Z" fill="#9FB3EC"/>
</svg>
