<svg width="102" height="24" viewBox="0 0 102 24" fill="none" xmlns="http://www.w3.org/2000/svg">
<path fill-rule="evenodd" clip-rule="evenodd" d="M58.4623 18.8929H54.5007L48.2717 10.646V18.8929H44.8333V1.29286H48.2717V9.062L54.2515 1.29286H58.2132L51.7599 9.84143L58.4623 18.8929ZM61.6018 4.81286C61.0702 4.81286 60.6093 4.61591 60.2189 4.222C59.8286 3.82809 59.6334 3.36296 59.6334 2.82657C59.6334 2.29019 59.8286 1.82086 60.2189 1.41857C60.6093 1.01628 61.0702 0.815144 61.6018 0.815144C62.1499 0.815144 62.6192 1.01628 63.0095 1.41857C63.3999 1.82086 63.595 2.29019 63.595 2.82657C63.595 3.36296 63.3999 3.82809 63.0095 4.222C62.6192 4.61591 62.1499 4.81286 61.6018 4.81286ZM60.0071 18.8929V6.32143H63.2213V18.8929H60.0071ZM69.3756 8.48372C69.6746 7.67914 70.1687 7.07572 70.8581 6.67343C71.5474 6.27114 72.3156 6.07 73.1628 6.07V9.69057C72.1828 9.57324 71.3065 9.77438 70.5341 10.294C69.7617 10.8136 69.3756 11.6769 69.3756 12.8837V18.8929H66.1614V6.32143H69.3756V8.48372ZM82.2821 5.96943C83.9597 5.96943 85.3924 6.61057 86.5801 7.89286C87.7677 9.17515 88.3616 10.7466 88.3616 12.6071C88.3616 14.4677 87.7677 16.0391 86.5801 17.3214C85.3924 18.6037 83.9597 19.2449 82.2821 19.2449C80.5379 19.2449 79.1925 18.6331 78.2457 17.4094V18.8929H75.0315V1.29286H78.2457V7.80486C79.1925 6.58123 80.5379 5.96943 82.2821 5.96943ZM79.2174 15.1717C79.8652 15.8254 80.6874 16.1523 81.6841 16.1523C82.6807 16.1523 83.5071 15.8212 84.1632 15.1591C84.8193 14.497 85.1474 13.6464 85.1474 12.6071C85.1474 11.5679 84.8193 10.7172 84.1632 10.0551C83.5071 9.39305 82.6807 9.062 81.6841 9.062C80.6874 9.062 79.8652 9.39305 79.2174 10.0551C78.5696 10.7172 78.2457 11.5679 78.2457 12.6071C78.2457 13.6464 78.5696 14.5012 79.2174 15.1717ZM98.2532 6.32143H101.692L97.1569 18.8929C96.5091 20.7032 95.6495 22.0148 94.5781 22.8277C93.5067 23.6407 92.1737 24.0052 90.5791 23.9214V20.9043C91.4429 20.921 92.128 20.7367 92.6347 20.3511C93.1413 19.9656 93.5441 19.3454 93.8431 18.4906L88.7353 6.32143H92.2485L95.4876 14.7694L98.2532 6.32143Z" fill="#23241F" class="kirbyLogoText"/>
<g clip-path="url(#logoclip0)">
<mask id="logomask0" mask-type="alpha" maskUnits="userSpaceOnUse" x="0" y="-9" width="32" height="33">
<path d="M16 23.4C24.8365 23.4 32 16.2366 32 7.4C32 -1.43655 24.8365 -8.6 16 -8.6C7.16343 -8.6 -1.52588e-05 -1.43655 -1.52588e-05 7.4C-1.52588e-05 16.2366 7.16343 23.4 16 23.4Z" fill="#63655F"/>
</mask>
<g mask="url(#logomask0)">
<path fill-rule="evenodd" clip-rule="evenodd" d="M-0.646591 25.287V19.7366C1.1239 18.6555 2.95259 18.115 4.83949 18.115C7.66983 18.115 10.6435 19.7366 13.2261 19.7366C15.8087 19.7366 18.6354 18.115 22.073 18.115C25.5106 18.115 28.1068 19.7366 30.249 19.7366C31.6771 19.7366 33.3975 19.1961 35.41 18.115V23.7442C34.0033 24.7727 32.283 25.287 30.249 25.287C27.198 25.287 25.8507 23.7442 22.073 23.7442C18.2953 23.7442 16.5027 25.287 13.2261 25.287C9.98414 25.287 7.77336 23.7442 4.83949 23.7442C3.22488 23.7442 1.39618 24.2585 -0.646591 25.287Z" fill="#FF4F95"/>
<path fill-rule="evenodd" clip-rule="evenodd" d="M-0.646591 18.7302V15.494C1.1239 14.4129 2.95259 13.8723 4.83949 13.8723C7.66983 13.8723 10.6435 15.494 13.2261 15.494C15.8087 15.494 18.6354 13.8723 22.073 13.8723C25.5106 13.8723 28.1068 15.494 30.249 15.494C31.6771 15.494 33.3975 14.9535 35.41 13.8723V17.1874C34.0033 18.216 32.283 18.7302 30.249 18.7302C27.198 18.7302 25.8507 17.1874 22.073 17.1874C18.2953 17.1874 16.5027 18.7302 13.2261 18.7302C9.98414 18.7302 7.77336 17.1874 4.83949 17.1874C3.22488 17.1874 1.39618 17.7017 -0.646591 18.7302Z" fill="#D1389D"/>
<path fill-rule="evenodd" clip-rule="evenodd" d="M-0.646591 14.4876V12.0228C1.1239 10.9417 2.95259 10.4011 4.83949 10.4011C7.66983 10.4011 10.6435 12.0228 13.2261 12.0228C15.8087 12.0228 18.6354 10.4011 22.073 10.4011C25.5106 10.4011 28.1068 12.0228 30.249 12.0228C31.6771 12.0228 33.3975 11.4822 35.41 10.4011V12.9448C34.0033 13.9734 32.283 14.4876 30.249 14.4876C27.198 14.4876 25.8507 12.9448 22.073 12.9448C18.2953 12.9448 16.5027 14.4876 13.2261 14.4876C9.98414 14.4876 7.77336 12.9448 4.83949 12.9448C3.22488 12.9448 1.39618 13.4591 -0.646591 14.4876Z" fill="#B023AC"/>
<path fill-rule="evenodd" clip-rule="evenodd" d="M52.6582 8.76573V10.5343C50.0176 9.40861 48.2614 8.86185 47.3895 8.89397C45.7394 9.02623 43.7584 10.5115 42.0326 10.5748C39.3627 10.5687 38.1854 8.82323 36.3986 8.9126C34.5521 8.99137 32.0057 10.4554 30.249 10.4554C27.198 10.4554 25.8507 8.9126 22.073 8.9126C18.2953 8.9126 16.5027 10.4554 13.2261 10.4554C9.98414 10.4554 7.77336 8.9126 4.83949 8.9126C3.22488 8.9126 1.39618 9.42685 -0.646591 10.4554V8.76573C1.1239 7.68461 2.95259 7.14405 4.83949 7.14405C7.66983 7.14405 10.6435 8.76573 13.2261 8.76573C15.8087 8.76573 18.6354 7.14405 22.073 7.14405C25.5106 7.14405 28.1068 8.76573 30.249 8.76573C32.0057 8.76573 34.1265 7.29741 36.5648 7.17788C38.9858 7.25439 39.9362 8.9261 42.0326 8.76573C43.244 8.67306 45.0296 7.32992 47.3895 7.14405C48.4018 7.06433 50.1581 7.60488 52.6582 8.76573Z" fill="#7527C2"/>
<path fill-rule="evenodd" clip-rule="evenodd" d="M52.6582 5.29296V6.56049C50.0176 5.43483 48.2614 4.88805 47.3895 4.92018C45.7394 5.05244 43.7584 6.5377 42.0326 6.601C39.3627 6.59491 38.1854 4.84944 36.3986 4.93881C34.5521 5.01758 32.0057 6.48158 30.249 6.48158C27.198 6.48158 25.8507 4.93881 22.073 4.93881C18.2953 4.93881 16.5027 6.48158 13.2261 6.48158C9.98414 6.48158 7.77336 4.93881 4.83949 4.93881C3.22488 4.93881 1.39618 5.45306 -0.646591 6.48158V5.29296C1.1239 4.21183 2.95259 3.67127 4.83949 3.67127C7.66983 3.67127 10.6435 5.29296 13.2261 5.29296C15.8087 5.29296 18.6354 3.67127 22.073 3.67127C25.5106 3.67127 28.1068 5.29296 30.249 5.29296C32.0057 5.29296 33.0452 3.95819 36.5648 3.7051C37.0536 3.66996 37.5696 3.8311 38.1129 4.0631C38.6873 4.26429 39.1823 4.53791 39.6751 4.78284C40.4181 5.10416 41.204 5.35634 42.0326 5.29296C43.244 5.20029 45.0296 3.85714 47.3895 3.67127C48.4018 3.59154 50.1581 4.13211 52.6582 5.29296Z" fill="#6A27D6"/>
<path fill-rule="evenodd" clip-rule="evenodd" d="M-0.646591 3.30252C1.39618 2.27401 3.22488 1.75976 4.83949 1.75976C7.77336 1.75976 9.98414 3.30252 13.2261 3.30252C16.5027 3.30252 18.2953 1.75976 22.073 1.75976C25.8507 1.75976 27.198 3.30252 30.249 3.30252C32.0057 3.30252 34.5521 1.83852 36.3986 1.75976C38.1854 1.67039 39.3627 3.41586 42.0326 3.42195C43.7584 3.35864 45.7394 1.87339 47.3895 1.74113C48.2614 1.709 50.0176 2.25577 52.6582 3.38143V2.63472C50.1581 1.47387 48.4018 0.933313 47.3895 1.01304C45.0296 1.1989 43.244 2.54205 42.0326 2.63472C39.9362 2.79509 38.9858 1.12337 36.5648 1.04687C34.1265 1.16639 32.0057 2.63472 30.249 2.63472C28.1068 2.63472 25.5106 1.01304 22.073 1.01304C18.6354 1.01304 15.8087 2.63472 13.2261 2.63472C10.6435 2.63472 7.66983 1.01304 4.83949 1.01304C2.95259 1.01304 1.1239 1.5536 -0.646591 2.63472V3.30252Z" fill="#5D17CF"/>
</g>
</g>
<defs>
<clipPath id="logoclip0">
<rect width="32" height="22.4" fill="white" transform="translate(0 1)"/>
</clipPath>
</defs>
</svg>
