<svg width="32" height="23" viewBox="0 0 32 23" fill="none" xmlns="http://www.w3.org/2000/svg">
<g clip-path="url(#logoclip0)">
<mask id="logomask0" mask-type="alpha" maskUnits="userSpaceOnUse" x="0" y="-10" width="32" height="33">
<path d="M16 22.4C24.8366 22.4 32 15.2366 32 6.4C32 -2.43655 24.8366 -9.6 16 -9.6C7.16346 -9.6 1.52588e-05 -2.43655 1.52588e-05 6.4C1.52588e-05 15.2366 7.16346 22.4 16 22.4Z" fill="#63655F"/>
</mask>
<g mask="url(#logomask0)">
<path fill-rule="evenodd" clip-rule="evenodd" d="M-0.646484 25.287V19.7366C1.12401 18.6555 2.9527 18.115 4.83959 18.115C7.66993 18.115 10.6436 19.7366 13.2262 19.7366C15.8088 19.7366 18.6355 18.115 22.0731 18.115C25.5107 18.115 28.1069 19.7366 30.2491 19.7366C31.6772 19.7366 33.3976 19.1961 35.4101 18.115V23.7442C34.0034 24.7727 32.2831 25.287 30.2491 25.287C27.1981 25.287 25.8508 23.7442 22.0731 23.7442C18.2954 23.7442 16.5028 25.287 13.2262 25.287C9.98425 25.287 7.77347 23.7442 4.83959 23.7442C3.22498 23.7442 1.39629 24.2585 -0.646484 25.287Z" fill="#517BDE"/>
<path fill-rule="evenodd" clip-rule="evenodd" d="M-0.646484 18.7302V15.494C1.12401 14.4129 2.9527 13.8724 4.83959 13.8724C7.66993 13.8724 10.6436 15.494 13.2262 15.494C15.8088 15.494 18.6355 13.8724 22.0731 13.8724C25.5107 13.8724 28.1069 15.494 30.2491 15.494C31.6772 15.494 33.3976 14.9535 35.4101 13.8724V17.1875C34.0034 18.216 32.2831 18.7302 30.2491 18.7302C27.1981 18.7302 25.8508 17.1875 22.0731 17.1875C18.2954 17.1875 16.5028 18.7302 13.2262 18.7302C9.98425 18.7302 7.77347 17.1875 4.83959 17.1875C3.22498 17.1875 1.39629 17.7017 -0.646484 18.7302Z" fill="#2763D6"/>
<path fill-rule="evenodd" clip-rule="evenodd" d="M-0.646484 14.4876V12.0228C1.12401 10.9417 2.9527 10.4011 4.83959 10.4011C7.66993 10.4011 10.6436 12.0228 13.2262 12.0228C15.8088 12.0228 18.6355 10.4011 22.0731 10.4011C25.5107 10.4011 28.1069 12.0228 30.2491 12.0228C31.6772 12.0228 33.3976 11.4822 35.4101 10.4011V12.9449C34.0034 13.9734 32.2831 14.4876 30.2491 14.4876C27.1981 14.4876 25.8508 12.9449 22.0731 12.9449C18.2954 12.9449 16.5028 14.4876 13.2262 14.4876C9.98425 14.4876 7.77347 12.9449 4.83959 12.9449C3.22498 12.9449 1.39629 13.4591 -0.646484 14.4876Z" fill="#7527C2"/>
<path fill-rule="evenodd" clip-rule="evenodd" d="M52.6583 8.76574V10.5343C50.0177 9.40863 48.2615 8.86186 47.3896 8.89398C45.7395 9.02624 43.7585 10.5115 42.0327 10.5748C39.3628 10.5687 38.1855 8.82325 36.3987 8.91261C34.5522 8.99138 32.0058 10.4554 30.2491 10.4554C27.1981 10.4554 25.8508 8.91261 22.0731 8.91261C18.2954 8.91261 16.5028 10.4554 13.2262 10.4554C9.98425 10.4554 7.77347 8.91261 4.83959 8.91261C3.22498 8.91261 1.39629 9.42687 -0.646484 10.4554V8.76574C1.12401 7.68463 2.9527 7.14407 4.83959 7.14407C7.66993 7.14407 10.6436 8.76574 13.2262 8.76574C15.8088 8.76574 18.6355 7.14407 22.0731 7.14407C25.5107 7.14407 28.1069 8.76574 30.2491 8.76574C32.0058 8.76574 34.1266 7.29742 36.5649 7.1779C38.9859 7.2544 39.9363 8.92611 42.0327 8.76574C43.2441 8.67308 45.0297 7.32993 47.3896 7.14407C48.4019 7.06434 50.1582 7.6049 52.6583 8.76574Z" fill="#B023AC"/>
<path fill-rule="evenodd" clip-rule="evenodd" d="M52.6583 5.29297V6.5605C50.0177 5.43484 48.2615 4.88807 47.3896 4.92019C45.7395 5.05245 43.7585 6.53771 42.0327 6.60102C39.3628 6.59493 38.1855 4.84945 36.3987 4.93882C34.5522 5.01759 32.0058 6.48159 30.2491 6.48159C27.1981 6.48159 25.8508 4.93882 22.0731 4.93882C18.2954 4.93882 16.5028 6.48159 13.2262 6.48159C9.98425 6.48159 7.77347 4.93882 4.83959 4.93882C3.22498 4.93882 1.39629 5.45308 -0.646484 6.48159V5.29297C1.12401 4.21185 2.9527 3.67129 4.83959 3.67129C7.66993 3.67129 10.6436 5.29297 13.2262 5.29297C15.8088 5.29297 18.6355 3.67129 22.0731 3.67129C25.5107 3.67129 28.1069 5.29297 30.2491 5.29297C32.0058 5.29297 33.0454 3.9582 36.5649 3.70512C37.0537 3.66997 37.5697 3.83112 38.113 4.06312C38.6874 4.26431 39.1824 4.53793 39.6752 4.78286C40.4183 5.10418 41.2041 5.35636 42.0327 5.29297C43.2441 5.20031 45.0297 3.85715 47.3896 3.67129C48.4019 3.59156 50.1582 4.13212 52.6583 5.29297Z" fill="#CA4ABE"/>
<path fill-rule="evenodd" clip-rule="evenodd" d="M-0.646484 3.30254C1.39629 2.27403 3.22498 1.75977 4.83959 1.75977C7.77347 1.75977 9.98425 3.30254 13.2262 3.30254C16.5028 3.30254 18.2954 1.75977 22.0731 1.75977C25.8508 1.75977 27.1981 3.30254 30.2491 3.30254C32.0058 3.30254 34.5522 1.83854 36.3987 1.75977C38.1855 1.6704 39.3628 3.41588 42.0327 3.42196C43.7585 3.35866 45.7395 1.8734 47.3896 1.74114C48.2615 1.70902 50.0177 2.25579 52.6583 3.38145V2.63473C50.1582 1.47389 48.4019 0.933329 47.3896 1.01306C45.0297 1.19892 43.2441 2.54207 42.0327 2.63473C39.9363 2.79511 38.9859 1.12339 36.5649 1.04688C34.1266 1.16641 32.0058 2.63473 30.2491 2.63473C28.1069 2.63473 25.5107 1.01306 22.0731 1.01306C18.6355 1.01306 15.8088 2.63473 13.2262 2.63473C10.6436 2.63473 7.66993 1.01306 4.83959 1.01306C2.9527 1.01306 1.12401 1.55362 -0.646484 2.63473V3.30254Z" fill="#CA4ABE"/>
</g>
</g>
<defs>
<clipPath id="logoclip0">
<path d="M1.52588e-05 0H32V22.4H1.52588e-05V0Z" fill="white"/>
</clipPath>
</defs>
</svg>
