<?xml version="1.0" standalone="no"?>
<!DOCTYPE svg PUBLIC "-//W3C//DTD SVG 20010904//EN"
 "http://www.w3.org/TR/2001/REC-SVG-20010904/DTD/svg10.dtd">
<svg version="1.0" xmlns="http://www.w3.org/2000/svg"
 width="180.000000pt" height="180.000000pt" viewBox="0 0 180.000000 180.000000"
 preserveAspectRatio="xMidYMid meet">
<metadata>
Created by potrace 1.11, written by Peter Selinger 2001-2013
</metadata>
<g transform="translate(0.000000,180.000000) scale(0.100000,-0.100000)"
fill="#000000" stroke="none">
<path d="M153 1515 c-78 -17 -103 -31 -103 -56 0 -16 4 -19 18 -14 19 8 72 24
106 32 42 10 148 10 194 1 26 -6 94 -23 152 -39 187 -53 265 -50 510 16 166
46 299 40 485 -20 76 -25 209 -41 240 -29 7 3 11 12 8 20 -3 10 -21 14 -57 14
-29 0 -106 15 -175 35 -67 19 -147 39 -178 44 -94 18 -214 7 -368 -34 -192
-51 -276 -54 -421 -14 -232 63 -293 69 -411 44z"/>
<path d="M103 1351 c-45 -15 -84 -29 -86 -31 -2 -3 -7 -21 -11 -41 l-6 -37 87
31 c131 46 232 44 413 -7 117 -34 149 -39 240 -39 92 -1 122 4 245 38 124 34
153 39 255 39 104 0 127 -3 240 -36 149 -44 190 -51 250 -43 63 9 71 16 64 52
-6 30 -8 31 -36 21 -43 -15 -127 -3 -263 37 -95 28 -142 37 -225 40 -111 4
-140 0 -345 -54 -174 -45 -211 -43 -470 30 -122 34 -248 34 -352 0z"/>
<path d="M225 1183 c-17 -3 -120 -24 -135 -28 -3 -1 -24 -10 -48 -19 -37 -16
-42 -22 -38 -45 2 -14 5 -36 5 -47 1 -21 2 -21 87 8 66 23 105 30 163 30 86 1
105 -2 251 -44 151 -43 283 -47 411 -13 283 76 369 78 584 11 91 -28 124 -34
192 -33 45 1 84 4 86 7 3 3 7 27 10 53 l5 48 -31 -7 c-70 -15 -103 -11 -235
26 -145 41 -251 59 -311 54 -121 -12 -135 -14 -245 -46 -38 -11 -78 -21 -90
-24 -12 -2 -34 -7 -51 -10 -87 -19 -144 -12 -380 49 -96 25 -187 37 -230 30z"/>
<path d="M150 988 c-68 -17 -120 -40 -120 -52 0 -8 10 -37 21 -65 19 -44 25
-51 43 -45 121 39 229 38 371 -1 236 -65 293 -68 460 -24 265 70 364 72 560
14 66 -20 143 -38 171 -41 l51 -6 20 49 c40 95 42 90 -34 96 -38 3 -124 22
-193 42 -111 33 -138 37 -245 39 -133 1 -124 2 -320 -48 -163 -43 -216 -44
-350 -9 -49 13 -121 32 -160 42 -75 20 -216 24 -275 9z"/>
<path d="M215 804 c-11 -2 -44 -9 -72 -15 l-53 -10 20 -37 c10 -20 32 -57 48
-81 l30 -43 93 -3 c52 -2 119 -10 149 -19 168 -48 213 -57 295 -60 70 -3 110
2 180 20 299 79 410 81 612 11 47 -16 39 -21 111 74 23 31 42 60 42 65 0 5
-30 17 -68 26 -37 10 -110 30 -162 44 -152 42 -253 38 -465 -16 -217 -55 -252
-55 -455 -2 -145 38 -258 55 -305 46z"/>
<path d="M249 552 c10 -19 68 -70 141 -123 58 -43 174 -97 267 -125 78 -24
105 -27 238 -27 177 0 255 17 400 87 82 40 206 124 213 146 2 4 -21 15 -50 23
-158 46 -273 43 -473 -8 -184 -48 -171 -46 -240 -47 -60 0 -127 13 -282 58
-45 12 -114 26 -153 30 -70 6 -72 6 -61 -14z"/>
</g>
</svg>
